<?xml version="1.0" encoding="utf-8"?>
<!-- Generator: Adobe Illustrator 21.0.2, SVG Export Plug-In . SVG Version: 6.00 Build 0)  -->
<svg version="1.1" id="Layer_1" xmlns="http://www.w3.org/2000/svg" xmlns:xlink="http://www.w3.org/1999/xlink" x="0px" y="0px"
	 viewBox="0 0 128 128" style="enable-background:new 0 0 128 128;" xml:space="preserve">
<style type="text/css">
	.st0{fill:#9B0000;}
	.st1{fill:#F9C582;}
</style>
<rect class="st0" width="128" height="128"/>
<g>
	<path class="st1" d="M64.6,74.7c-0.1,0-0.2,0-0.2,0l-3.8,4.8c1.4,0.2,2.8,0.3,4.2,0.2c11.6-0.5,20.8-9.8,21.3-21.2l-5-0.1
		C80.6,67.1,73.5,74.3,64.6,74.7z M85.8,53.8L79.6,47l1.3-3.8l2.6-7.3l-7.1,3.2l-3.7,1.7l-7.3-5.6l-2.1-1.6l0.2,1.5l0.6,5l0.6,5.1
		L47.1,61.7c-0.3-1.1-0.5-2.2-0.5-3.3c0-0.1,0-0.2,0-0.2c-0.4-9,6.1-16.6,14.8-17.8l-0.6-5C49.5,36.8,41,46.8,41.5,58.4
		c0.1,1.4,0.3,2.8,0.6,4.2c0.2,1,0.5,2,0.9,3L40.4,68l3-1.5l4.5-2.3l18.7-9.7l-8,19.5c-0.9-0.3-1.8-0.6-2.6-1.1
		c-2.8-1.4-5.1-3.6-6.8-6.2l-4.5,2.3c2.2,3.7,5.5,6.7,9.4,8.6c0.8,0.4,1.7,0.8,2.6,1.1l-1.3,3.1l2.2-2.8l3.4-4.4l14.8-19l5.2,0.1
		l5.1,0.1l1.5,0L85.8,53.8z"/>
	<path class="st1" d="M75.6,89.2h-1.9l-1.8,4.8l-1.8-2.5l1.9-2.4h-1.9l-1.3,1.9v-1.9h-1.5v5.1h1.5v-1.4l0.3-0.4l1.1,1.8h3.3l0.2-0.7
		h1.9l0.2,0.7h1.7L75.6,89.2z M74.1,92.4l0.6-1.8l0.6,1.8H74.1z"/>
	<path class="st1" d="M65.4,88.2c-0.3,0.4-0.8,0.7-1.4,0.7c-0.6,0-1.1-0.3-1.4-0.7l0.7-0.6c0.2,0.2,0.4,0.4,0.7,0.4
		c0.3,0,0.6-0.2,0.7-0.4L65.4,88.2z"/>
	<polygon class="st1" points="66.4,89.2 66.4,94.3 64.9,94.3 64.9,91.3 63,94.3 61.5,94.3 61.5,89.2 63.1,89.2 63.1,92.1 64.8,89.2 
			"/>
	<path class="st1" d="M59.4,89.2h-1.9l-1.9,5.1h1.7l0.2-0.7h1.9l0.2,0.7h1.7L59.4,89.2z M57.8,92.4l0.6-1.8l0.6,1.8H57.8z"/>
	<path class="st1" d="M55.3,89.2v5.1h-1.5v-3.7h-1.2l0,0.4c-0.2,2.9-1.2,3.4-2.4,3.4V93c0.4,0,0.9-0.2,1.1-2.4l0.1-1.3H55.3z"/>
</g>
</svg>
